<?xml version="1.0" encoding="iso-8859-1"?>
<!-- Generator: Adobe Illustrator 16.0.0, SVG Export Plug-In . SVG Version: 6.00 Build 0)  -->
<!DOCTYPE svg PUBLIC "-//W3C//DTD SVG 1.1//EN" "http://www.w3.org/Graphics/SVG/1.1/DTD/svg11.dtd">
<svg version="1.1" id="Capa_1" xmlns="http://www.w3.org/2000/svg" xmlns:xlink="http://www.w3.org/1999/xlink" x="0px" y="0px"
	 width="655.715px" height="655.715px" viewBox="0 0 655.715 655.715" style="enable-background:new 0 0 655.715 655.715;"
	 xml:space="preserve">
<g>
	<g id="_x36__27_">
		<g>
			<path d="M546.429,393.429V218.572C546.429,97.854,448.574,0,327.857,0S109.286,97.854,109.286,218.572v174.857L21.857,568.286
				h198.922c10.12,49.878,54.206,87.429,107.078,87.429c52.872,0,96.958-37.551,107.078-87.429h198.922L546.429,393.429z
				 M327.857,612c-28.502,0-52.522-18.294-61.55-43.714h123.121C380.38,593.706,356.359,612,327.857,612z M87.429,524.571
				L153,393.429V218.572c0-96.565,78.292-174.857,174.857-174.857c96.564,0,174.857,78.292,174.857,174.857v174.857l65.571,131.143
				H87.429z"/>
		</g>
	</g>
</g>
<g>
</g>
<g>
</g>
<g>
</g>
<g>
</g>
<g>
</g>
<g>
</g>
<g>
</g>
<g>
</g>
<g>
</g>
<g>
</g>
<g>
</g>
<g>
</g>
<g>
</g>
<g>
</g>
<g>
</g>
</svg>
